<svg xmlns="http://www.w3.org/2000/svg" viewBox="0 0 24 24" width="24" height="24" role="img" aria-label="Honorarios">
<rect x="0" y="0" width="4" height="4" rx="0.6" fill="#4A2E22"/>
<rect x="5" y="0" width="4" height="4" rx="0.6" fill="#4A2E22"/>
<rect x="10" y="0" width="4" height="4" rx="0.6" fill="#4A2E22"/>
<rect x="15" y="0" width="4" height="4" rx="0.6" fill="#4A2E22"/>
<rect x="20" y="0" width="4" height="4" rx="0.6" fill="#4A2E22"/>
<rect x="0" y="5" width="4" height="4" rx="0.6" fill="#4A2E22"/>
<rect x="5" y="5" width="4" height="4" rx="0.6" fill="#4A2E22"/>
<rect x="10" y="5" width="4" height="4" rx="0.6" fill="#4A2E22"/>
<rect x="15" y="5" width="4" height="4" rx="0.6" fill="#4A2E22"/>
<rect x="20" y="5" width="4" height="4" rx="0.6" fill="#4A2E22"/>
<rect x="0" y="10" width="4" height="4" rx="0.6" fill="#4A2E22"/>
<rect x="5" y="10" width="4" height="4" rx="0.6" fill="#4A2E22"/>
<rect x="10" y="10" width="4" height="4" rx="0.6" fill="#4A2E22"/>
<rect x="15" y="10" width="4" height="4" rx="0.6" fill="#4A2E22"/>
<rect x="20" y="10" width="4" height="4" rx="0.6" fill="#4A2E22"/>
<rect x="0" y="15" width="4" height="4" rx="0.6" fill="#4A2E22"/>
<rect x="5" y="15" width="4" height="4" rx="0.6" fill="#4A2E22"/>
<rect x="10" y="15" width="4" height="4" rx="0.6" fill="#4A2E22"/>
<rect x="15" y="15" width="4" height="4" rx="0.6" fill="#4A2E22"/>
<rect x="20" y="15" width="4" height="4" rx="0.6" fill="#B5532F"/>
<rect x="0" y="20" width="4" height="4" rx="0.6" fill="#4A2E22"/>
<rect x="5" y="20" width="4" height="4" rx="0.6" fill="#4A2E22"/>
<rect x="10" y="20" width="4" height="4" rx="0.6" fill="#4A2E22"/>
<rect x="15" y="20" width="4" height="4" rx="0.6" fill="#B5532F"/>
<rect x="20" y="20" width="4" height="4" rx="0.6" fill="#4A2E22"/>
</svg>
